<svg xmlns="http://www.w3.org/2000/svg" viewBox="0 0 523.65 58.11">
	<style>.cls-1{fill:#231815;}</style>
	<path class="cls-1" d="M122.52,24.47A17.69,17.69,0,0,0,124,17c0-7.49-4-13.78-11.25-16-2.3-.74-4.46-1-9.32-1H64.64V56.78H78.7V34H94.82l15,22.81h16.68L109.36,33.1C115.09,32.07,120,30.25,122.52,24.47ZM101.93,24H78.7V9.82h22.67c3.91,0,8.37,1.13,8.37,7.28S104.55,24,101.93,24Zm88.2,22.66V56.78H135.59V0H188.5V10.2H149.82V24.42h37.4V34.55h-37.4V46.64ZM26.55,58.11C12.55,58.11.15,52,0,36.56V29.11H15.41v6.68c.22,7.09,3.9,11.53,11.14,11.53s10.94-4.44,11.17-11.53V0h15.4V36.56C53,52,40.58,58.11,26.55,58.11Zm429.8-11.47V56.78h-57V0h14.24V46.64Zm67.3,0V56.78h-57V0h14.24V46.64ZM361.17,0H345.6L315.66,56.78h15.46l5.63-11.64h31.73l5.63,11.64h17ZM341.64,35l11-22.71,11,22.71ZM307.43,56.78H293.89V17.53L276.62,56.78H260.43L243,17.16V56.78H229.46V0h19.67L269,45.25,288.77,0h18.66Z"/>
</svg>